<svg xmlns="http://www.w3.org/2000/svg" viewBox="0 0 96 96" role="img" aria-labelledby="title"><title id="title">Lumi, de nieuwsgierige lens</title><path d="m62 24 6-13" fill="none" stroke="#EE6558" stroke-width="5" stroke-linecap="round"/><circle cx="70" cy="9" r="6" fill="#F3BA55"/><path d="M83 51c0 21-14 37-35 37S12 73 12 52s15-35 36-35c19 0 35 13 35 34Z" fill="#192D46"/><path d="M17 36C26 13 55 12 73 28c-12-4-23-2-33 5-11 7-16 19-18 30-8-8-10-18-5-27Z" fill="#EE6558"/><path d="M29 57c0-14 8-26 23-26 13 0 23 10 23 25 0 14-10 24-24 24S29 72 29 57Z" fill="#F8F6F1"/><rect x="40" y="49" width="6" height="10" rx="3" fill="#192D46"/><rect x="58" y="49" width="6" height="10" rx="3" fill="#192D46"/><path d="M46 65q6 5 12-1" fill="none" stroke="#192D46" stroke-width="3" stroke-linecap="round"/><circle cx="35" cy="61" r="3" fill="#F3BA55"/></svg>
